<?xml version="1.0" encoding="UTF-8" standalone="no"?>
<!-- Created with Inkscape (http://www.inkscape.org/) -->

<svg
   xmlns:dc="http://purl.org/dc/elements/1.1/"
   xmlns:cc="http://creativecommons.org/ns#"
   xmlns:rdf="http://www.w3.org/1999/02/22-rdf-syntax-ns#"
   xmlns:svg="http://www.w3.org/2000/svg"
   xmlns="http://www.w3.org/2000/svg"
   xmlns:xlink="http://www.w3.org/1999/xlink"
   xmlns:sodipodi="http://sodipodi.sourceforge.net/DTD/sodipodi-0.dtd"
   xmlns:inkscape="http://www.inkscape.org/namespaces/inkscape"
   width="990"
   height="765"
   id="svg3089"
   version="1.1"
   inkscape:version="0.48.4 r9939"
   sodipodi:docname="cover.svg"
   enable-background="new">
  <defs
     id="defs3091" />
  <sodipodi:namedview
     id="base"
     pagecolor="#000074"
     bordercolor="#666666"
     borderopacity="1.0"
     inkscape:pageopacity="1"
     inkscape:pageshadow="2"
     inkscape:zoom="0.98994949"
     inkscape:cx="471.46834"
     inkscape:cy="389.21915"
     inkscape:document-units="px"
     inkscape:current-layer="svg3089"
     showgrid="true"
     showguides="true"
     inkscape:guide-bbox="true"
     units="in"
     inkscape:window-width="1920"
     inkscape:window-height="1018"
     inkscape:window-x="-8"
     inkscape:window-y="-8"
     inkscape:window-maximized="1"
     inkscape:snap-global="true">
    <sodipodi:guide
       orientation="1,0"
       position="281.69643,779.82143"
       id="guide3871" />
    <inkscape:grid
       type="xygrid"
       id="grid3873"
       empspacing="5"
       visible="true"
       enabled="true"
       snapvisiblegridlinesonly="true"
       units="in"
       spacingx="0.25in"
       spacingy="0.25in" />
    <sodipodi:guide
       orientation="1,0"
       position="708.87455,663.16515"
       id="guide4682" />
  </sodipodi:namedview>
  <metadata
     id="metadata3094">
    <rdf:RDF>
      <cc:Work
         rdf:about="">
        <dc:format>image/svg+xml</dc:format>
        <dc:type
           rdf:resource="http://purl.org/dc/dcmitype/StillImage" />
        <dc:title></dc:title>
      </cc:Work>
    </rdf:RDF>
  </metadata>
  <g
     inkscape:groupmode="layer"
     id="layer3"
     inkscape:label="Layer">
    <rect
       style="fill:#000080;fill-opacity:1;stroke:#000000;stroke-width:1;stroke-miterlimit:4;stroke-opacity:1;stroke-dasharray:none"
       id="rect3918"
       width="899.03577"
       height="561.64484"
       x="47.477173"
       y="64.964272" />
  </g>
  <g
     inkscape:label="Page Guides"
     inkscape:groupmode="layer"
     id="layer1"
     transform="translate(0,-287.362)"
     style="opacity:0.86000001;display:none">
    <rect
       style="fill:none;stroke:#ffffff;stroke-width:0.80000001;stroke-miterlimit:4;stroke-opacity:1;stroke-dasharray:none"
       id="rect3097"
       width="382.5"
       height="495"
       x="517.5"
       y="-872.362"
       transform="scale(1,-1)" />
    <use
       x="0"
       y="0"
       xlink:href="#rect3097"
       id="use3867"
       transform="translate(-383.5,-4.8828133e-7)"
       width="990"
       height="765"
       style="fill:none;stroke:#ffffff;stroke-width:0.80000001;stroke-miterlimit:4;stroke-opacity:1;stroke-dasharray:none" />
  </g>
  <g
     inkscape:groupmode="layer"
     id="layer2"
     inkscape:label="Tenshin Logo">
    <path
       sodipodi:type="arc"
       style="fill:none;stroke:#ffffff;stroke-width:1.11223996;stroke-linecap:butt;stroke-linejoin:miter;stroke-miterlimit:4;stroke-opacity:1;stroke-dasharray:none;display:inline"
       id="path3126"
       sodipodi:cx="167.5"
       sodipodi:cy="184.25"
       sodipodi:rx="55.5"
       sodipodi:ry="55.5"
       d="m 223,184.25 a 55.5,55.5 0 1 1 -111,0 55.5,55.5 0 1 1 111,0 z"
       transform="matrix(2.239973,0,0,2.239973,333.63268,-72.98222)" />
    <path
       sodipodi:type="arc"
       style="fill:#ffffff;fill-opacity:1;fill-rule:evenodd;stroke:none;display:inline"
       id="path2996"
       sodipodi:cx="150.89154"
       sodipodi:cy="213.54625"
       sodipodi:rx="20.076782"
       sodipodi:ry="20.076782"
       d="m 170.96832,213.54625 a 20.076782,20.076782 0 1 1 -40.15356,0 20.076782,20.076782 0 1 1 40.15356,0 z"
       transform="matrix(2.1340773,0,0,2.1340773,342.34322,-53.59981)" />
    <use
       x="0"
       y="0"
       xlink:href="#path2996"
       id="use3009"
       transform="translate(-27.865712,-84.756395)"
       width="382.5"
       height="495"
       style="fill:#ffffff;fill-opacity:1;stroke:none;display:inline" />
    <use
       x="0"
       y="0"
       xlink:href="#path2996"
       id="use3015"
       transform="translate(88.992422,1e-5)"
       width="382.5"
       height="495"
       style="fill:#ffffff;fill-opacity:1;stroke:none;display:inline" />
    <use
       x="0"
       y="0"
       xlink:href="#path2996"
       id="use3017"
       transform="translate(116.99826,-84.756395)"
       width="382.5"
       height="495"
       style="fill:#ffffff;fill-opacity:1;stroke:none;display:inline" />
    <use
       x="0"
       y="0"
       xlink:href="#path2996"
       id="use3021"
       transform="translate(44.517116,-136.4698)"
       width="382.5"
       height="495"
       style="fill:#ffffff;fill-opacity:1;stroke:none;display:inline" />
    <path
       style="fill:#ffffff;fill-opacity:1;stroke:#000061;stroke-width:2.37364554px;stroke-linecap:butt;stroke-linejoin:miter;stroke-opacity:1"
       d="m 698.95994,379.60767 -3.71158,-124.08781 c 1.79348,-9.77229 6.83597,-18.93762 13.57981,-27.80985 5.57234,8.99182 10.81469,15.68285 13.57981,28.19731 l -3.71158,123.70035 -5.12094,9.54442 -9.49458,0 z"
       id="path3924"
       inkscape:connector-curvature="0"
       sodipodi:nodetypes="cccccccc" />
    <path
       style="fill:#ffffff;fill-opacity:1;stroke:#000061;stroke-width:2.37364554000000010px;stroke-linecap:butt;stroke-linejoin:miter;stroke-opacity:1"
       d="m 708.60656,227.71001 0,160.9186"
       id="path3926"
       inkscape:connector-curvature="0" />
    <path
       style="fill:#ffffff;fill-opacity:1;stroke:#00006e;stroke-width:2.37364554px;stroke-linecap:butt;stroke-linejoin:miter;stroke-opacity:1"
       d="m 713.64183,389.10066 3.67153,4.09114 -2.83233,42.74729 -11.95874,0 -1.67842,-42.74729 3.35683,-4.09114 z"
       id="path3928"
       inkscape:connector-curvature="0"
       sodipodi:nodetypes="ccccccc" />
    <path
       sodipodi:type="arc"
       style="fill:#ffffff;fill-opacity:1;stroke:#00006e;stroke-width:1;stroke-miterlimit:4;stroke-opacity:1;stroke-dasharray:none"
       id="path3932"
       sodipodi:cx="149.88454"
       sodipodi:cy="387.05573"
       sodipodi:rx="3.8227961"
       sodipodi:ry="1.6572815"
       d="m 153.70733,387.05573 a 3.8227961,1.6572815 0 1 1 -7.64559,0 3.8227961,1.6572815 0 1 1 7.64559,0 z"
       transform="matrix(2.3736456,0,0,2.3736456,352.99111,-479.17494)" />
    <flowRoot
       xml:space="preserve"
       id="flowRoot4720"
       style="font-size:24px;font-style:normal;font-variant:normal;font-weight:normal;font-stretch:normal;text-align:center;line-height:125%;letter-spacing:0px;word-spacing:0px;text-anchor:middle;fill:#000000;fill-opacity:1;stroke:none;font-family:Silom;-inkscape-font-specification:Silom"><flowRegion
         id="flowRegion4722"><rect
           id="rect4724"
           width="297.995"
           height="65.659912"
           x="563.6651"
           y="114.46176"
           style="font-style:normal;font-variant:normal;font-weight:normal;font-stretch:normal;text-align:center;text-anchor:middle;font-family:Silom;-inkscape-font-specification:Silom" /></flowRegion><flowPara
         id="flowPara4726"
         style="font-size:36px;font-style:normal;font-variant:normal;font-weight:bold;font-stretch:normal;fill:#ffffff;fill-opacity:1;font-family:Tamil MN;-inkscape-font-specification:Tamil MN Bold">Tenshin Dojo</flowPara></flowRoot>    <flowRoot
       xml:space="preserve"
       id="flowRoot4738"
       style="font-size:24px;font-style:normal;font-weight:normal;text-align:center;line-height:125%;letter-spacing:0px;word-spacing:0px;text-anchor:middle;fill:#000000;fill-opacity:1;stroke:none;font-family:Sans"><flowRegion
         id="flowRegion4740"><rect
           id="rect4742"
           width="337.5"
           height="45"
           x="540"
           y="157.5"
           style="text-align:center;text-anchor:middle" /></flowRegion><flowPara
         style="font-size:18px;font-weight:normal;fill:#ffffff;fill-opacity:1;-inkscape-font-specification:Sans"
         id="flowPara4746">Udansha - Kyu - Seminar</flowPara><flowPara
         style="font-size:18px;font-weight:normal;fill:#ffffff;fill-opacity:1;-inkscape-font-specification:Sans"
         id="flowPara4750">Passport/Record</flowPara></flowRoot>    <flowRoot
       xml:space="preserve"
       id="flowRoot4752"
       style="font-size:12px;font-style:normal;font-weight:normal;line-height:125%;letter-spacing:0px;word-spacing:0px;fill:#ffffff;fill-opacity:1;stroke:none;font-family:Sans"
       transform="translate(148.84375,32.97651)"><flowRegion
         id="flowRegion4754"><rect
           id="rect4756"
           width="291.93408"
           height="86.873116"
           x="563.6651"
           y="474.07608"
           style="font-size:12px;fill:#ffffff;fill-opacity:1" /></flowRegion><flowPara
         id="flowPara4758">Member of</flowPara><flowPara
         id="flowPara4760">Aikikai Foundation</flowPara><flowPara
         id="flowPara3041">Aikido World HQ - Hombo Dojo</flowPara><flowPara
         id="flowPara3045">Tokyo, Japan</flowPara></flowRoot>    <flowRoot
       xml:space="preserve"
       id="flowRoot4764"
       style="font-size:24px;font-style:normal;font-weight:normal;text-align:start;line-height:125%;letter-spacing:0px;word-spacing:0px;text-anchor:start;fill:#ffffff;fill-opacity:1;stroke:none;font-family:Sans"
       transform="translate(-91.8125,38.97651)"><flowRegion
         id="flowRegion4766"><rect
           id="rect4768"
           width="228.29448"
           height="87.88327"
           x="628.31488"
           y="474.07608"
           style="text-align:start;text-anchor:start;fill:#ffffff;fill-opacity:1" /></flowRegion><flowPara
         id="flowPara4770"
         style="font-size:12px;text-align:start;text-anchor:start;fill:#ffffff;fill-opacity:1">Elliot Freeman Sensei</flowPara><flowPara
         style="font-size:11px;text-align:start;text-anchor:start;fill:#ffffff;fill-opacity:1"
         id="flowPara3107">Under the direction of</flowPara><flowPara
         id="flowPara4772"
         style="font-size:11px;text-align:start;text-anchor:start;fill:#ffffff;fill-opacity:1">Shihan Steven Seagal</flowPara></flowRoot>    <path
       style="fill:#ffffff;fill-opacity:1"
       d="m 324.60734,374.28677 c -1.87617,-0.087 -4.1588,-0.30498 -5.68344,-0.54267 -0.39819,-0.0621 -0.92834,-0.14348 -1.17809,-0.18065 -2.34251,-0.34997 -5.6558,-1.17258 -8.48736,-2.10719 -5.58191,-1.84245 -10.65837,-4.40697 -15.36835,-7.76378 -1.60165,-1.14148 -2.19415,-1.59802 -3.66985,-2.82756 -3.72083,-3.10019 -7.16657,-6.80451 -9.93416,-10.67965 -0.38501,-0.53908 -0.76204,-1.06158 -0.83789,-1.16115 -0.28422,-0.37308 -1.90284,-2.96979 -2.45956,-3.94582 -3.83993,-6.73204 -6.27503,-14.07047 -7.18331,-21.64769 -0.32555,-2.716 -0.38986,-3.86829 -0.38986,-6.98665 0,-3.11568 0.0637,-4.25843 0.38918,-6.98665 1.14405,-9.58805 4.7856,-18.87319 10.52027,-26.82432 0.95277,-1.32103 2.99917,-3.86628 3.81281,-4.74223 1.78254,-1.91914 2.39751,-2.54706 3.4839,-3.55748 1.88268,-1.75098 2.90663,-2.61562 5.05714,-4.27034 0.7492,-0.57647 2.6924,-1.90763 3.87342,-2.65343 7.24356,-4.57421 15.54723,-7.50629 24.03692,-8.48766 2.39594,-0.27697 3.78032,-0.35 6.66084,-0.35143 2.8118,-0.001 3.8305,0.0461 6.11785,0.28542 9.70872,1.01575 19.10759,4.54927 27.08742,10.1836 1.62325,1.14613 2.27301,1.6377 3.46553,2.62168 1.38357,1.14167 1.62607,1.35662 3.39375,3.00812 0.98085,0.91638 2.76737,2.81049 3.96038,4.19892 3.19263,3.71557 5.97906,7.9605 8.11665,12.36513 2.67976,5.52181 4.52371,11.61147 5.26947,17.4026 0.42651,3.31187 0.49584,4.40377 0.49584,7.80807 0,3.11796 -0.0642,4.26883 -0.38976,6.98665 -1.22601,10.23482 -5.2476,20.02797 -11.61011,28.27234 -3.05812,3.96264 -6.42334,7.34144 -10.46703,10.50932 -0.99069,0.77612 -1.49137,1.13621 -3.25481,2.34077 -5.50547,3.76069 -12.32726,6.7337 -19.0083,8.28401 -1.29024,0.29939 -2.85487,0.61484 -3.60918,0.72765 -0.24489,0.0365 -0.77105,0.11732 -1.16926,0.1794 -3.23111,0.50371 -7.431,0.71013 -11.04105,0.54267 z m 6.89512,-5.24248 c 2.43016,-0.19912 4.20158,-0.45313 6.59016,-0.94482 6.48937,-1.33581 13.06139,-4.1235 18.65818,-7.91436 5.80532,-3.9321 10.77103,-8.95057 14.58984,-14.74483 2.52106,-3.82521 4.48492,-7.84101 5.94419,-12.15502 1.44593,-4.27456 2.25441,-8.26691 2.64816,-13.07652 0.11898,-1.45375 0.11939,-6.06797 5.8e-4,-7.52965 -0.37967,-4.67391 -1.21392,-8.82293 -2.60586,-12.95966 -3.21447,-9.55325 -9.12314,-18.02849 -16.99093,-24.37141 -5.37908,-4.33656 -11.82483,-7.704 -18.34055,-9.58165 -3.71243,-1.0698 -6.58843,-1.58699 -10.94541,-1.96828 -1.26598,-0.11067 -6.26325,-0.11088 -7.52962,-2e-5 -5.38014,0.47063 -9.61268,1.37001 -14.08188,2.99228 -5.61707,2.03894 -10.62477,4.87295 -15.38508,8.70692 -0.59084,0.47585 -0.56559,0.45417 -1.8824,1.61683 -1.66183,1.46727 -3.5368,3.37297 -4.96686,5.04823 -5.68458,6.6593 -9.51798,14.34979 -11.49424,23.05952 -0.29153,1.28483 -0.69962,3.84038 -0.90759,5.68344 -0.35548,3.15056 -0.35584,7.89488 -5.9e-4,11.07726 0.72766,6.52274 2.41,12.25034 5.29522,18.0277 0.35795,0.71675 0.72516,1.43352 0.81602,1.5928 1.50224,2.63354 2.6411,4.40483 4.03347,6.27335 0.87099,1.16884 2.40902,3.05423 3.06246,3.75411 0.20453,0.21901 0.61076,0.65884 0.9028,0.9774 2.89423,3.15691 7.36136,6.76493 11.22359,9.06506 2.5537,1.52084 6.01674,3.21558 8.25364,4.03918 0.29865,0.10984 0.80363,0.29628 1.12219,0.41408 4.69971,1.73759 10.58092,2.87326 15.81949,3.05471 1.31048,0.0455 4.92695,-0.0347 6.17113,-0.13662 z m -6.38831,-2.50521 c -7.45378,-0.31159 -15.05602,-2.39596 -21.50648,-5.89658 -6.34355,-3.44263 -11.70842,-8.02307 -16.09397,-13.74075 -7.6702,-10.00006 -11.34148,-22.73643 -10.14651,-35.20006 0.88077,-9.18633 4.23056,-17.86555 9.73211,-25.21557 3.87165,-5.17248 8.78398,-9.60198 14.41231,-12.99573 1.69565,-1.02242 4.83961,-2.60993 6.62465,-3.345 12.2015,-5.02462 25.4805,-5.12283 37.71597,-0.27894 5.16883,2.04627 9.97748,4.98429 14.3037,8.73934 1.07543,0.93344 3.89472,3.75317 4.82279,4.82356 2.90742,3.35322 5.16727,6.73343 7.14524,10.68766 4.71891,9.43369 6.3455,20.09447 4.64381,30.43575 -1.18245,7.18588 -3.93681,14.09337 -7.98245,20.01871 -1.93412,2.83273 -3.81935,5.07456 -6.39504,7.60465 -8.29038,8.14362 -19.15676,13.16136 -30.79631,14.22072 -1.01985,0.0928 -3.90484,0.22243 -4.63361,0.20814 -0.27876,-0.006 -1.10955,-0.0351 -1.84621,-0.0658 z m 6.04541,-9.37923 c 4.89937,-0.43 9.45755,-1.64677 13.96095,-3.72676 1.80346,-0.83297 4.58384,-2.40129 5.43898,-3.06794 0.0779,-0.0606 0.18356,-0.11026 0.23509,-0.11026 0.0515,0 0.21595,-0.10797 0.36539,-0.23999 0.1495,-0.13206 0.55865,-0.44508 0.90936,-0.69572 0.3507,-0.25066 0.62094,-0.47242 0.60055,-0.49283 -0.0208,-0.0208 -0.25847,0.006 -0.52904,0.0608 -0.27108,0.054 -0.91453,0.0961 -1.43318,0.0939 -0.786,-0.004 -1.03685,-0.0334 -1.52131,-0.18189 -1.92129,-0.58895 -3.13352,-2.05047 -3.77689,-4.55353 -0.67128,-2.61175 -0.67734,-6.18493 -0.0187,-11.51166 0.24143,-1.95481 0.43208,-3.15958 1.11711,-7.05903 0.30006,-1.70811 1.43583,-7.88414 1.52449,-8.28984 0.0218,-0.0997 0.0851,-0.44165 0.14078,-0.76021 0.0556,-0.31857 0.16819,-0.93758 0.25018,-1.37562 1.53133,-8.18731 1.82784,-12.99913 0.91709,-14.88322 -0.2506,-0.51845 -0.31942,-0.60008 -0.65943,-0.7823 -0.56932,-0.30515 -1.42839,-0.14847 -2.72311,0.49651 -3.06425,1.52657 -7.74464,5.78892 -14.55,13.25042 -1.10836,1.21521 -2.16624,2.41668 -2.16506,2.45887 5.8e-4,0.0214 0.54632,0.19913 1.2127,0.39497 1.83236,0.53845 2.03288,0.60588 1.827,0.61437 -0.43922,0.0187 -3.43345,0.23077 -3.44701,0.24481 -0.008,0.008 0.12978,0.37398 0.30679,0.81199 2.27439,5.62842 4.78631,12.78153 5.99137,17.06132 1.33905,4.75575 1.88689,8.52504 1.566,10.77471 -0.33999,2.38358 -1.78338,3.68096 -3.91034,3.51474 -0.78426,-0.0613 -1.33398,-0.18999 -2.302,-0.53878 -2.53555,-0.91368 -5.03309,-2.42833 -11.89611,-7.21453 -7.30043,-5.09125 -10.38773,-6.88647 -13.01122,-7.5658 -1.84218,-0.47701 -2.95102,-0.18813 -3.54198,0.92262 -0.39946,0.75085 -0.5407,1.48183 -0.58106,3.0074 -0.0745,2.82033 0.43045,5.97237 1.79654,11.21156 0.0548,0.21059 0.17774,0.33692 0.6654,0.68426 0.32895,0.2343 0.60895,0.45201 0.62222,0.48384 0.0125,0.0318 0.0529,0.0579 0.0882,0.0579 0.0353,0 0.4805,0.27373 0.98947,0.6083 3.42874,2.25385 7.60575,4.09244 11.67688,5.1398 2.91593,0.75016 6.02509,1.20587 8.86905,1.29993 1.15317,0.0382 3.79195,-0.0374 4.99564,-0.14306 z m 0.95407,-14.25683 c 0.27635,-0.20016 0.57834,-0.8226 0.71854,-1.48097 0.14327,-0.67252 0.10299,-2.86771 -0.075,-4.09063 -0.4277,-2.93925 -1.21229,-6.18796 -2.58778,-10.71524 -0.5593,-1.84087 -2.04139,-6.34371 -2.5781,-7.8327 l -0.3441,-0.95465 -0.73272,0.66505 c -0.40298,0.36578 -1.23172,1.12118 -1.84162,1.67865 -0.60988,0.55749 -1.07998,0.96474 -1.04464,0.90502 0.0353,-0.0598 0.59583,-0.96098 1.24553,-2.00277 0.64969,-1.04177 1.19983,-1.94256 1.22255,-2.00173 0.043,-0.11213 -0.19124,-0.16591 -1.48897,-0.34197 -2.15856,-0.29285 -7.14715,-1.11891 -9.59305,-1.5885 -12.015,-2.3068 -17.8173,-4.59294 -19.02337,-7.49531 -0.59117,-1.42265 -0.16674,-2.79319 1.33172,-4.30083 1.95451,-1.96639 5.0127,-3.69455 13.78202,-7.78809 3.61204,-1.68612 6.65141,-3.23416 8.43465,-4.29603 3.61378,-2.15192 5.34635,-3.98441 5.19091,-5.49034 -0.21823,-2.11458 -4.29904,-4.40491 -11.6627,-6.54564 l -1.29515,-0.37653 -0.40625,0.16486 c -1.89314,0.76858 -4.78014,2.37447 -6.85939,3.81551 -2.13763,1.48153 -3.61891,2.72879 -5.60453,4.71908 -2.20842,2.21363 -3.64448,3.96141 -5.23862,6.37573 -4.97312,7.53187 -7.36349,16.53105 -6.74107,25.37867 0.0588,0.83623 0.1277,1.66035 0.15282,1.83138 l 0.0459,0.31099 0.37141,-0.7474 c 0.6354,-1.27869 1.4008,-2.10506 2.42972,-2.6232 0.81295,-0.40941 1.27707,-0.50291 2.46668,-0.49689 0.92364,0.004 1.14989,0.0314 1.88242,0.22293 2.77604,0.72562 5.67094,2.30939 9.95505,5.44629 2.31382,1.69422 3.69402,2.79488 8.1747,6.5189 1.07873,0.89659 2.26828,1.89027 2.64341,2.20821 1.37341,1.16401 3.23065,2.72289 4.56889,3.83486 4.78354,3.97477 8.24058,6.32012 10.38754,7.04716 0.63882,0.21634 0.67138,0.22146 1.31606,0.20722 0.46736,-0.0104 0.63507,-0.0442 0.7964,-0.16113 z m 25.43588,-13.63985 c 1.87577,-0.6593 4.04893,-2.10183 7.02284,-4.6617 1.18396,-1.01914 3.83754,-3.58771 3.91386,-3.7885 0.11421,-0.3002 0.28516,-3.06017 0.28416,-4.58627 -0.004,-6.53831 -1.56629,-12.88744 -4.61943,-18.77626 -2.29625,-4.42891 -5.11558,-8.03774 -9.09924,-11.64729 -1.43353,-1.29889 -3.75183,-2.99392 -5.74313,-4.1991 -1.52497,-0.92292 -5.29794,-2.7884 -5.29794,-2.61944 0,0.0212 0.10091,0.18521 0.22444,0.36461 1.035,1.50433 1.21696,3.47733 0.47099,5.10684 -0.75097,1.64042 -2.6298,3.45225 -5.33427,5.14406 -2.1682,1.35632 -5.64683,3.03256 -9.66022,4.65489 -1.91642,0.77468 -7.90457,3.03169 -12.92347,4.87101 -3.13009,1.14712 -6.71589,2.55997 -8.39844,3.30909 -2.64791,1.17894 -4.9992,2.57627 -5.88431,3.49695 -0.85325,0.88756 -0.96349,1.44144 -0.42809,2.1509 1.30259,1.72607 6.5728,3.65019 14.67464,5.35759 3.57939,0.75431 9.78859,1.89075 9.87245,1.80688 0.0187,-0.0187 -0.0399,-0.61864 -0.13019,-1.33344 -0.0901,-0.71478 -0.1524,-1.33081 -0.13849,-1.36895 0.0145,-0.0382 0.31864,0.44867 0.67701,1.08178 0.35839,0.63314 0.67275,1.14317 0.69856,1.13343 0.0257,-0.0104 0.40268,-0.47386 0.83741,-1.03135 3.04602,-3.90598 6.85227,-8.45074 9.45913,-11.29445 1.22287,-1.33399 3.8159,-3.9381 4.82439,-4.84505 3.78754,-3.40609 6.38717,-4.6903 8.31151,-4.10579 0.90324,0.27435 1.58114,0.90419 2.07516,1.928 0.82425,1.70819 1.123,4.57721 0.90468,8.68805 -0.0422,0.7964 -0.14098,2.29508 -0.21922,3.33042 -0.13414,1.77383 -0.18169,2.36572 -0.35627,4.4345 -0.44925,5.32323 -0.53291,6.81518 -0.53295,9.50256 -4e-5,2.71029 0.0972,3.81792 0.46219,5.26748 0.35898,1.42555 0.93774,2.35544 1.68238,2.70305 0.43507,0.20308 1.69245,0.16362 2.36979,-0.0745 z"
       id="path3947"
       inkscape:connector-curvature="0" />
    <flowRoot
       xml:space="preserve"
       id="flowRoot4794"
       style="fill:black;stroke:none;stroke-opacity:1;stroke-width:1px;stroke-linejoin:miter;stroke-linecap:butt;fill-opacity:1;font-family:Sans;font-style:normal;font-weight:normal;font-size:12px;line-height:125%;letter-spacing:0px;word-spacing:0px"><flowRegion
         id="flowRegion4796"><rect
           id="rect4798"
           width="112.12693"
           height="61.619305"
           x="347.49246"
           y="495.28928"
           style="font-size:12px" /></flowRegion><flowPara
         id="flowPara4800" /></flowRoot>    <flowRoot
       xml:space="preserve"
       id="flowRoot4802"
       style="font-size:12px;font-style:normal;font-weight:normal;text-align:end;line-height:125%;letter-spacing:0px;word-spacing:0px;text-anchor:end;fill:#ffffff;fill-opacity:1;stroke:none;font-family:Sans"
       transform="translate(-35.46875,-20.527954)"><flowRegion
         id="flowRegion4804"><rect
           id="rect4806"
           width="176.43532"
           height="92.320267"
           x="344.46201"
           y="494.27911"
           style="font-size:12px;text-align:end;text-anchor:end;fill:#ffffff;fill-opacity:1" /></flowRegion><flowPara
         id="flowPara4814">issued by:</flowPara><flowPara
         id="flowPara4825">Three Rivers Aikikai</flowPara><flowPara
         id="flowPara4827">Tenshin Dojo Headquarters</flowPara><flowPara
         id="flowPara4829">St. Louis, MO  USA</flowPara><flowPara
         id="flowPara3103">314-645-2345</flowPara><flowPara
         id="flowPara3105">www.threeriversaikido.com</flowPara></flowRoot>    <text
       xml:space="preserve"
       style="font-size:48px;font-style:normal;font-weight:normal;line-height:125%;letter-spacing:0px;word-spacing:0px;fill:#000000;fill-opacity:1;stroke:none;font-family:Sans"
       x="224.25386"
       y="694.28931"
       id="text4831"
       sodipodi:linespacing="125%"><tspan
         sodipodi:role="line"
         id="tspan4833"
         x="224.25386"
         y="694.28931">Front and Back Cover</tspan></text>
  </g>
  <path
     style="fill:none;stroke:#ffffff;stroke-width:1px;stroke-linecap:butt;stroke-linejoin:miter;stroke-opacity:1"
     d="m 135,-22.5 0,90"
     id="path4391"
     inkscape:connector-curvature="0" />
  <path
     style="fill:none;stroke:#ffffff;stroke-width:1px;stroke-linecap:butt;stroke-linejoin:miter;stroke-opacity:1"
     d="m -22.5,90 135,0"
     id="path4901"
     inkscape:connector-curvature="0" />
  <path
     style="fill:none;stroke:#ffffff;stroke-width:1px;stroke-linecap:butt;stroke-linejoin:miter;stroke-opacity:1"
     d="m 135,765 0,-157.5"
     id="path4903"
     inkscape:connector-curvature="0" />
  <path
     style="fill:none;stroke:#ffffff;stroke-width:1px;stroke-linecap:butt;stroke-linejoin:miter;stroke-opacity:1"
     d="m -22.5,585 135,0"
     id="path4905"
     inkscape:connector-curvature="0" />
  <path
     style="fill:none;stroke:#ffffff;stroke-width:1px;stroke-linecap:butt;stroke-linejoin:miter;stroke-opacity:1"
     d="m 900,787.5 0,-180"
     id="path4907"
     inkscape:connector-curvature="0" />
  <path
     style="fill:none;stroke:#ffffff;stroke-width:1px;stroke-linecap:butt;stroke-linejoin:miter;stroke-opacity:1"
     d="m 1057.5,585 -135,0"
     id="path4909"
     inkscape:connector-curvature="0" />
  <path
     style="fill:none;stroke:#ffffff;stroke-width:1px;stroke-linecap:butt;stroke-linejoin:miter;stroke-opacity:1"
     d="m 900,-45 0,112.5"
     id="path4911"
     inkscape:connector-curvature="0" />
  <path
     style="fill:none;stroke:#ffffff;stroke-width:1px;stroke-linecap:butt;stroke-linejoin:miter;stroke-opacity:1"
     d="m 1057.5,90 -135,0"
     id="path4913"
     inkscape:connector-curvature="0" />
</svg>
